<svg xmlns="http://www.w3.org/2000/svg" xmlns:xlink="http://www.w3.org/1999/xlink" width="500" zoomAndPan="magnify" viewBox="0 0 375 374.999991" height="500" preserveAspectRatio="xMidYMid meet" version="1.0"><defs><g/><clipPath id="3c54d15a29"><path d="M 142.035156 140.050781 L 232.785156 140.050781 L 232.785156 187.300781 L 142.035156 187.300781 Z M 142.035156 140.050781 " clip-rule="nonzero"/></clipPath><clipPath id="55e77d6451"><path d="M 230 160 L 232.785156 160 L 232.785156 167 L 230 167 Z M 230 160 " clip-rule="nonzero"/></clipPath><clipPath id="1123e646c3"><path d="M 142.035156 160 L 145 160 L 145 167 L 142.035156 167 Z M 142.035156 160 " clip-rule="nonzero"/></clipPath></defs><g fill="#000000" fill-opacity="1"><g transform="translate(104.248394, 213.957437)"><g><path d="M 16.921875 -19.546875 C 17.234375 -19.546875 17.484375 -19.445312 17.671875 -19.25 C 17.859375 -19.050781 17.953125 -18.804688 17.953125 -18.515625 L 17.953125 -1.171875 C 17.953125 -0.816406 17.835938 -0.53125 17.609375 -0.3125 C 17.390625 -0.101562 17.125 0 16.8125 0 C 16.644531 0 16.476562 -0.03125 16.3125 -0.09375 C 16.144531 -0.164062 16.015625 -0.253906 15.921875 -0.359375 L 3.96875 -16.171875 L 4.515625 -16.5 L 4.515625 -1.03125 C 4.515625 -0.738281 4.414062 -0.492188 4.21875 -0.296875 C 4.03125 -0.0976562 3.78125 0 3.46875 0 C 3.164062 0 2.921875 -0.0976562 2.734375 -0.296875 C 2.546875 -0.492188 2.453125 -0.738281 2.453125 -1.03125 L 2.453125 -18.421875 C 2.453125 -18.765625 2.554688 -19.035156 2.765625 -19.234375 C 2.984375 -19.441406 3.242188 -19.546875 3.546875 -19.546875 C 3.710938 -19.546875 3.882812 -19.507812 4.0625 -19.4375 C 4.238281 -19.375 4.375 -19.28125 4.46875 -19.15625 L 16.25 -3.578125 L 15.890625 -3.125 L 15.890625 -18.515625 C 15.890625 -18.804688 15.984375 -19.050781 16.171875 -19.25 C 16.367188 -19.445312 16.617188 -19.546875 16.921875 -19.546875 Z M 16.921875 -19.546875 "/></g></g></g><g fill="#000000" fill-opacity="1"><g transform="translate(124.625685, 213.957437)"><g><path d="M 3.578125 -19.546875 L 13.515625 -19.546875 C 13.828125 -19.546875 14.09375 -19.441406 14.3125 -19.234375 C 14.539062 -19.035156 14.65625 -18.773438 14.65625 -18.453125 C 14.65625 -18.140625 14.539062 -17.882812 14.3125 -17.6875 C 14.09375 -17.488281 13.828125 -17.390625 13.515625 -17.390625 L 4.515625 -17.390625 L 4.78125 -17.875 L 4.78125 -10.8125 L 4.5 -11.109375 L 12.25 -11.109375 C 12.570312 -11.109375 12.84375 -11.003906 13.0625 -10.796875 C 13.289062 -10.597656 13.40625 -10.34375 13.40625 -10.03125 C 13.40625 -9.707031 13.289062 -9.445312 13.0625 -9.25 C 12.84375 -9.0625 12.570312 -8.96875 12.25 -8.96875 L 4.578125 -8.96875 L 4.78125 -9.21875 L 4.78125 -1.984375 L 4.609375 -2.171875 L 13.515625 -2.171875 C 13.828125 -2.171875 14.09375 -2.054688 14.3125 -1.828125 C 14.539062 -1.609375 14.65625 -1.363281 14.65625 -1.09375 C 14.65625 -0.769531 14.539062 -0.503906 14.3125 -0.296875 C 14.09375 -0.0976562 13.828125 0 13.515625 0 L 3.578125 0 C 3.253906 0 2.984375 -0.109375 2.765625 -0.328125 C 2.554688 -0.554688 2.453125 -0.828125 2.453125 -1.140625 L 2.453125 -18.421875 C 2.453125 -18.742188 2.554688 -19.007812 2.765625 -19.21875 C 2.984375 -19.4375 3.253906 -19.546875 3.578125 -19.546875 Z M 3.578125 -19.546875 "/></g></g></g><g fill="#000000" fill-opacity="1"><g transform="translate(140.536726, 213.957437)"><g><path d="M 15.265625 -19.625 C 15.546875 -19.625 15.789062 -19.519531 16 -19.3125 C 16.21875 -19.113281 16.328125 -18.882812 16.328125 -18.625 C 16.328125 -18.382812 16.242188 -18.148438 16.078125 -17.921875 L 9.9375 -9.640625 L 8.6875 -11.390625 L 14.375 -19.09375 C 14.625 -19.445312 14.921875 -19.625 15.265625 -19.625 Z M 2.203125 -19.625 C 2.597656 -19.625 2.90625 -19.46875 3.125 -19.15625 L 16.078125 -1.703125 C 16.234375 -1.484375 16.3125 -1.25 16.3125 -1 C 16.3125 -0.664062 16.1875 -0.394531 15.9375 -0.1875 C 15.695312 0.0078125 15.445312 0.109375 15.1875 0.109375 C 14.8125 0.109375 14.503906 -0.046875 14.265625 -0.359375 L 1.3125 -17.84375 C 1.164062 -18.03125 1.09375 -18.253906 1.09375 -18.515625 C 1.09375 -18.828125 1.207031 -19.085938 1.4375 -19.296875 C 1.664062 -19.515625 1.921875 -19.625 2.203125 -19.625 Z M 2.09375 0.109375 C 1.789062 0.109375 1.539062 0.00390625 1.34375 -0.203125 C 1.15625 -0.421875 1.0625 -0.640625 1.0625 -0.859375 C 1.0625 -1.117188 1.15625 -1.375 1.34375 -1.625 L 7.515625 -10.03125 L 8.71875 -8.1875 L 2.984375 -0.390625 C 2.765625 -0.0546875 2.46875 0.109375 2.09375 0.109375 Z M 2.09375 0.109375 "/></g></g></g><g fill="#000000" fill-opacity="1"><g transform="translate(157.8993, 213.957437)"><g><path d="M 8.515625 0 C 8.179688 0 7.898438 -0.109375 7.671875 -0.328125 C 7.453125 -0.554688 7.34375 -0.828125 7.34375 -1.140625 L 7.34375 -18.40625 L 9.71875 -18.40625 L 9.71875 -1.140625 C 9.71875 -0.828125 9.601562 -0.554688 9.375 -0.328125 C 9.15625 -0.109375 8.867188 0 8.515625 0 Z M 2.03125 -17.421875 C 1.71875 -17.421875 1.453125 -17.519531 1.234375 -17.71875 C 1.023438 -17.914062 0.921875 -18.171875 0.921875 -18.484375 C 0.921875 -18.796875 1.023438 -19.050781 1.234375 -19.25 C 1.453125 -19.445312 1.71875 -19.546875 2.03125 -19.546875 L 15.015625 -19.546875 C 15.335938 -19.546875 15.609375 -19.445312 15.828125 -19.25 C 16.054688 -19.050781 16.171875 -18.796875 16.171875 -18.484375 C 16.171875 -18.148438 16.054688 -17.890625 15.828125 -17.703125 C 15.609375 -17.515625 15.335938 -17.421875 15.015625 -17.421875 Z M 2.03125 -17.421875 "/></g></g></g><g fill="#000000" fill-opacity="1"><g transform="translate(174.954818, 213.957437)"><g><path d="M 3.734375 0 C 3.390625 0 3.085938 -0.109375 2.828125 -0.328125 C 2.578125 -0.554688 2.453125 -0.828125 2.453125 -1.140625 L 2.453125 -18.421875 C 2.453125 -18.742188 2.554688 -19.007812 2.765625 -19.21875 C 2.984375 -19.4375 3.253906 -19.546875 3.578125 -19.546875 L 11.28125 -19.546875 C 12.320312 -19.546875 13.257812 -19.304688 14.09375 -18.828125 C 14.9375 -18.359375 15.601562 -17.707031 16.09375 -16.875 C 16.59375 -16.050781 16.84375 -15.097656 16.84375 -14.015625 C 16.84375 -13.234375 16.691406 -12.503906 16.390625 -11.828125 C 16.085938 -11.148438 15.675781 -10.5625 15.15625 -10.0625 C 14.632812 -9.570312 14.039062 -9.195312 13.375 -8.9375 L 12.765625 -9.375 C 13.390625 -9.226562 13.953125 -8.960938 14.453125 -8.578125 C 14.960938 -8.203125 15.375 -7.71875 15.6875 -7.125 C 16.007812 -6.539062 16.175781 -5.859375 16.1875 -5.078125 C 16.226562 -4.390625 16.273438 -3.835938 16.328125 -3.421875 C 16.390625 -3.015625 16.472656 -2.695312 16.578125 -2.46875 C 16.691406 -2.238281 16.851562 -2.054688 17.0625 -1.921875 C 17.320312 -1.753906 17.492188 -1.53125 17.578125 -1.25 C 17.660156 -0.976562 17.609375 -0.710938 17.421875 -0.453125 C 17.304688 -0.285156 17.144531 -0.164062 16.9375 -0.09375 C 16.738281 -0.03125 16.535156 -0.0078125 16.328125 -0.03125 C 16.128906 -0.0507812 15.953125 -0.109375 15.796875 -0.203125 C 15.503906 -0.367188 15.21875 -0.613281 14.9375 -0.9375 C 14.65625 -1.257812 14.421875 -1.726562 14.234375 -2.34375 C 14.054688 -2.957031 13.96875 -3.796875 13.96875 -4.859375 C 13.96875 -5.453125 13.875 -5.941406 13.6875 -6.328125 C 13.5 -6.722656 13.242188 -7.039062 12.921875 -7.28125 C 12.609375 -7.53125 12.253906 -7.703125 11.859375 -7.796875 C 11.472656 -7.890625 11.078125 -7.9375 10.671875 -7.9375 L 4.4375 -7.9375 L 4.78125 -8.4375 L 4.78125 -1.140625 C 4.78125 -0.828125 4.6875 -0.554688 4.5 -0.328125 C 4.3125 -0.109375 4.054688 0 3.734375 0 Z M 4.4375 -9.9375 L 11.28125 -9.9375 C 11.820312 -9.976562 12.328125 -10.164062 12.796875 -10.5 C 13.273438 -10.832031 13.664062 -11.300781 13.96875 -11.90625 C 14.28125 -12.507812 14.4375 -13.195312 14.4375 -13.96875 C 14.4375 -14.945312 14.125 -15.757812 13.5 -16.40625 C 12.875 -17.0625 12.085938 -17.390625 11.140625 -17.390625 L 4.546875 -17.390625 L 4.78125 -17.921875 L 4.78125 -9.4375 Z M 4.4375 -9.9375 "/></g></g></g><g fill="#000000" fill-opacity="1"><g transform="translate(193.824751, 213.957437)"><g><path d="M 3.578125 -19.546875 L 13.515625 -19.546875 C 13.828125 -19.546875 14.09375 -19.441406 14.3125 -19.234375 C 14.539062 -19.035156 14.65625 -18.773438 14.65625 -18.453125 C 14.65625 -18.140625 14.539062 -17.882812 14.3125 -17.6875 C 14.09375 -17.488281 13.828125 -17.390625 13.515625 -17.390625 L 4.515625 -17.390625 L 4.78125 -17.875 L 4.78125 -10.8125 L 4.5 -11.109375 L 12.25 -11.109375 C 12.570312 -11.109375 12.84375 -11.003906 13.0625 -10.796875 C 13.289062 -10.597656 13.40625 -10.34375 13.40625 -10.03125 C 13.40625 -9.707031 13.289062 -9.445312 13.0625 -9.25 C 12.84375 -9.0625 12.570312 -8.96875 12.25 -8.96875 L 4.578125 -8.96875 L 4.78125 -9.21875 L 4.78125 -1.984375 L 4.609375 -2.171875 L 13.515625 -2.171875 C 13.828125 -2.171875 14.09375 -2.054688 14.3125 -1.828125 C 14.539062 -1.609375 14.65625 -1.363281 14.65625 -1.09375 C 14.65625 -0.769531 14.539062 -0.503906 14.3125 -0.296875 C 14.09375 -0.0976562 13.828125 0 13.515625 0 L 3.578125 0 C 3.253906 0 2.984375 -0.109375 2.765625 -0.328125 C 2.554688 -0.554688 2.453125 -0.828125 2.453125 -1.140625 L 2.453125 -18.421875 C 2.453125 -18.742188 2.554688 -19.007812 2.765625 -19.21875 C 2.984375 -19.4375 3.253906 -19.546875 3.578125 -19.546875 Z M 3.578125 -19.546875 "/></g></g></g><g fill="#000000" fill-opacity="1"><g transform="translate(209.735791, 213.957437)"><g><path d="M 10.109375 -19.546875 C 11.128906 -19.546875 12.046875 -19.289062 12.859375 -18.78125 C 13.679688 -18.28125 14.332031 -17.59375 14.8125 -16.71875 C 15.289062 -15.84375 15.53125 -14.847656 15.53125 -13.734375 C 15.53125 -12.640625 15.289062 -11.644531 14.8125 -10.75 C 14.332031 -9.851562 13.679688 -9.144531 12.859375 -8.625 C 12.046875 -8.101562 11.128906 -7.84375 10.109375 -7.84375 L 4.4375 -7.84375 L 4.640625 -8.1875 L 4.640625 -1.140625 C 4.640625 -0.828125 4.535156 -0.554688 4.328125 -0.328125 C 4.117188 -0.109375 3.859375 0 3.546875 0 C 3.210938 0 2.945312 -0.109375 2.75 -0.328125 C 2.550781 -0.554688 2.453125 -0.828125 2.453125 -1.140625 L 2.453125 -18.421875 C 2.453125 -18.742188 2.554688 -19.007812 2.765625 -19.21875 C 2.984375 -19.4375 3.253906 -19.546875 3.578125 -19.546875 Z M 10.109375 -10 C 10.722656 -10 11.257812 -10.164062 11.71875 -10.5 C 12.1875 -10.832031 12.5625 -11.285156 12.84375 -11.859375 C 13.125 -12.441406 13.265625 -13.066406 13.265625 -13.734375 C 13.265625 -14.441406 13.125 -15.066406 12.84375 -15.609375 C 12.5625 -16.148438 12.1875 -16.582031 11.71875 -16.90625 C 11.257812 -17.226562 10.722656 -17.390625 10.109375 -17.390625 L 4.4375 -17.390625 L 4.640625 -17.703125 L 4.640625 -9.71875 L 4.4375 -10 Z M 10.109375 -10 "/></g></g></g><g fill="#000000" fill-opacity="1"><g transform="translate(226.456341, 213.957437)"><g/></g></g><g fill="#000000" fill-opacity="1"><g transform="translate(234.132716, 213.957437)"><g><path d="M 9.21875 -16.640625 L 2.65625 -0.671875 C 2.582031 -0.441406 2.453125 -0.257812 2.265625 -0.125 C 2.078125 0 1.878906 0.0625 1.671875 0.0625 C 1.316406 0.0625 1.054688 -0.03125 0.890625 -0.21875 C 0.722656 -0.40625 0.640625 -0.628906 0.640625 -0.890625 C 0.617188 -1.023438 0.640625 -1.164062 0.703125 -1.3125 L 7.9375 -18.90625 C 8.019531 -19.164062 8.160156 -19.351562 8.359375 -19.46875 C 8.554688 -19.59375 8.773438 -19.644531 9.015625 -19.625 C 9.253906 -19.625 9.472656 -19.554688 9.671875 -19.421875 C 9.867188 -19.296875 10.003906 -19.125 10.078125 -18.90625 L 17.28125 -1.484375 C 17.34375 -1.328125 17.375 -1.175781 17.375 -1.03125 C 17.375 -0.695312 17.257812 -0.429688 17.03125 -0.234375 C 16.8125 -0.0351562 16.5625 0.0625 16.28125 0.0625 C 16.050781 0.0625 15.84375 0 15.65625 -0.125 C 15.476562 -0.257812 15.34375 -0.453125 15.25 -0.703125 L 8.59375 -16.671875 Z M 4.046875 -5.21875 L 5 -7.40625 L 13.296875 -7.40625 L 13.703125 -5.21875 Z M 4.046875 -5.21875 "/></g></g></g><g fill="#000000" fill-opacity="1"><g transform="translate(252.109404, 213.957437)"><g><path d="M 2.734375 -0.03125 C 2.347656 -0.03125 2.046875 -0.140625 1.828125 -0.359375 C 1.609375 -0.585938 1.5 -0.894531 1.5 -1.28125 L 1.5 -1.84375 C 1.5 -2.25 1.609375 -2.5625 1.828125 -2.78125 C 2.046875 -3.007812 2.347656 -3.125 2.734375 -3.125 L 2.953125 -3.125 C 3.367188 -3.125 3.675781 -3.007812 3.875 -2.78125 C 4.082031 -2.5625 4.1875 -2.25 4.1875 -1.84375 L 4.1875 -1.28125 C 4.1875 -0.894531 4.082031 -0.585938 3.875 -0.359375 C 3.675781 -0.140625 3.367188 -0.03125 2.953125 -0.03125 Z M 2.734375 -0.03125 "/></g></g></g><g fill="#000000" fill-opacity="1"><g transform="translate(257.80388, 213.957437)"><g><path d="M 4.78125 -1.140625 C 4.78125 -0.828125 4.660156 -0.554688 4.421875 -0.328125 C 4.191406 -0.109375 3.921875 0 3.609375 0 C 3.253906 0 2.972656 -0.109375 2.765625 -0.328125 C 2.554688 -0.554688 2.453125 -0.828125 2.453125 -1.140625 L 2.453125 -18.40625 C 2.453125 -18.738281 2.5625 -19.007812 2.78125 -19.21875 C 3.007812 -19.4375 3.289062 -19.546875 3.625 -19.546875 C 3.945312 -19.546875 4.21875 -19.4375 4.4375 -19.21875 C 4.664062 -19.007812 4.78125 -18.738281 4.78125 -18.40625 Z M 4.78125 -1.140625 "/></g></g></g><g fill="#000000" fill-opacity="1"><g transform="translate(265.033639, 213.957437)"><g><path d="M 2.734375 -0.03125 C 2.347656 -0.03125 2.046875 -0.140625 1.828125 -0.359375 C 1.609375 -0.585938 1.5 -0.894531 1.5 -1.28125 L 1.5 -1.84375 C 1.5 -2.25 1.609375 -2.5625 1.828125 -2.78125 C 2.046875 -3.007812 2.347656 -3.125 2.734375 -3.125 L 2.953125 -3.125 C 3.367188 -3.125 3.675781 -3.007812 3.875 -2.78125 C 4.082031 -2.5625 4.1875 -2.25 4.1875 -1.84375 L 4.1875 -1.28125 C 4.1875 -0.894531 4.082031 -0.585938 3.875 -0.359375 C 3.675781 -0.140625 3.367188 -0.03125 2.953125 -0.03125 Z M 2.734375 -0.03125 "/></g></g></g><g clip-path="url(#3c54d15a29)"><path fill="#000000" d="M 204.890625 161.339844 C 204.558594 162.953125 204.132812 164.523438 203.152344 165.902344 C 201.453125 168.296875 199.230469 170.121094 196.835938 171.753906 C 196.386719 172.0625 196.226562 172.378906 196.234375 172.910156 C 196.300781 176.996094 196.324219 181.085938 196.402344 185.175781 C 196.414062 185.773438 196.234375 185.980469 195.65625 186.105469 C 189.164062 187.511719 182.671875 187.316406 176.171875 186.15625 C 175.617188 186.054688 175.484375 185.847656 175.484375 185.308594 C 175.476562 180.875 175.445312 176.441406 175.40625 172.011719 C 175.40625 171.773438 175.359375 171.503906 175.234375 171.3125 C 173.65625 168.863281 172.859375 166.160156 172.621094 163.28125 C 172.546875 162.371094 172.515625 161.460938 172.460938 160.488281 C 171.164062 160.710938 169.910156 160.921875 168.613281 161.144531 C 168.644531 161.398438 168.664062 161.605469 168.691406 161.808594 C 169.125 165.058594 169.296875 168.3125 168.738281 171.570312 C 168.421875 173.410156 167.90625 175.191406 166.742188 176.695312 C 165.527344 178.261719 163.96875 179.105469 161.941406 178.609375 C 161.269531 178.445312 160.644531 178.085938 159.957031 177.796875 C 158.894531 178.835938 157.605469 179.089844 156.207031 178.46875 C 155.621094 178.210938 155.09375 177.800781 154.578125 177.414062 C 154.203125 177.132812 153.890625 176.773438 153.558594 176.460938 C 152.355469 177.21875 151.53125 177.226562 150.402344 176.414062 C 149.925781 176.074219 149.488281 175.65625 149.105469 175.214844 C 147.90625 173.828125 147.066406 172.214844 146.371094 170.53125 C 145.890625 169.355469 145.46875 168.152344 145.023438 166.964844 C 143.894531 167.132812 143.589844 166.992188 143.046875 165.96875 C 142.4375 164.816406 142.152344 163.570312 142.125 162.277344 C 142.105469 161.1875 142.089844 160.054688 143.578125 159.90625 C 143.507812 158.933594 143.410156 158.019531 143.378906 157.105469 C 143.347656 156.171875 143.34375 155.230469 143.390625 154.296875 C 143.46875 152.785156 143.679688 151.296875 144.277344 149.882812 C 144.707031 148.859375 145.460938 148.121094 146.558594 148.019531 C 147.441406 147.941406 147.710938 147.496094 148 146.769531 C 148.910156 144.492188 150.179688 143.695312 152.429688 143.859375 C 152.59375 143.59375 152.761719 143.316406 152.9375 143.046875 C 154.507812 140.675781 156.84375 140.136719 159.292969 141.601562 C 160.804688 142.503906 161.921875 143.804688 162.910156 145.226562 C 164.867188 148.050781 166.144531 151.191406 167.128906 154.460938 C 167.214844 154.746094 167.3125 155.027344 167.394531 155.285156 C 169.21875 154.992188 170.972656 154.714844 172.722656 154.40625 C 172.871094 154.378906 173.050781 154.113281 173.082031 153.933594 C 173.375 152.304688 173.625 150.664062 173.914062 149.035156 C 174.183594 147.503906 174.855469 146.203125 176.242188 145.386719 C 177.472656 144.664062 178.75 144.566406 180.027344 145.28125 C 181.097656 143.542969 183.988281 142.566406 186.3125 143.980469 C 188.457031 141.832031 191.402344 141.796875 194.078125 143.851562 C 194.605469 143.664062 195.089844 143.402344 195.605469 143.328125 C 197.757812 143 199.464844 143.761719 200.695312 145.566406 C 201.460938 146.6875 201.871094 147.949219 202.171875 149.265625 C 202.25 149.601562 202.457031 150.023438 202.730469 150.1875 C 204.53125 151.242188 205.613281 152.675781 205.339844 154.894531 C 206.125 155.042969 206.847656 155.179688 207.597656 155.324219 C 207.667969 155.105469 207.726562 154.925781 207.78125 154.746094 C 208.667969 151.75 209.789062 148.855469 211.449219 146.191406 C 212.496094 144.511719 213.695312 142.957031 215.351562 141.816406 C 217.917969 140.054688 220.464844 140.570312 222.148438 143.179688 C 222.300781 143.417969 222.449219 143.65625 222.59375 143.882812 C 224.3125 143.570312 225.546875 144.261719 226.414062 145.644531 C 226.777344 146.21875 227.023438 146.871094 227.28125 147.503906 C 227.390625 147.765625 227.496094 147.890625 227.800781 147.90625 C 229.316406 147.984375 230.335938 148.753906 230.84375 150.1875 C 231.730469 152.695312 231.71875 155.285156 231.578125 157.890625 C 231.542969 158.554688 231.464844 159.214844 231.410156 159.871094 C 232.636719 160.316406 232.875 160.640625 232.882812 161.976562 C 232.886719 163.273438 232.628906 164.519531 232.085938 165.699219 C 231.53125 166.898438 231.238281 167.066406 229.929688 166.992188 C 229.878906 167.125 229.835938 167.269531 229.78125 167.410156 C 229.210938 168.863281 228.699219 170.347656 228.054688 171.769531 C 227.316406 173.394531 226.390625 174.917969 225.015625 176.101562 C 223.757812 177.1875 222.851562 177.269531 221.429688 176.484375 C 218.316406 179.230469 217.417969 179.40625 214.933594 177.765625 C 214.769531 177.863281 214.609375 177.964844 214.441406 178.054688 C 212.320312 179.242188 210.171875 178.945312 208.609375 177.082031 C 207.914062 176.25 207.363281 175.238281 206.976562 174.222656 C 205.828125 171.195312 205.796875 168.019531 206 164.839844 C 206.074219 163.621094 206.234375 162.410156 206.359375 161.144531 C 205.910156 161.066406 205.464844 160.992188 204.96875 160.90625 C 204.929688 161.117188 204.914062 161.230469 204.890625 161.339844 Z M 180.664062 153.996094 C 180.523438 153.664062 180.421875 153.316406 180.308594 152.972656 C 180.164062 152.539062 179.902344 152.398438 179.464844 152.621094 C 179.699219 153.394531 179.921875 154.167969 180.171875 154.933594 C 180.222656 155.085938 180.371094 155.207031 180.472656 155.34375 C 179.996094 155.292969 179.476562 155.347656 179.054688 155.171875 C 178.113281 154.777344 177.597656 153.917969 177.109375 153.066406 C 176.988281 152.851562 176.859375 152.640625 176.679688 152.464844 C 177.191406 153.679688 177.65625 154.9375 178.851562 155.683594 C 179.5 156.089844 180.207031 156.019531 180.882812 155.691406 C 181.335938 155.472656 181.523438 155.089844 181.417969 154.605469 C 180.933594 152.386719 180.4375 150.171875 179.941406 147.957031 C 179.902344 147.789062 179.832031 147.628906 179.773438 147.46875 C 179.230469 146.023438 178.347656 145.6875 176.988281 146.414062 C 176.234375 146.820312 175.65625 147.570312 175.460938 148.308594 C 175.820312 147.992188 176.203125 147.503906 176.703125 147.242188 C 177.191406 146.988281 177.800781 146.957031 178.355469 146.828125 C 178.371094 146.886719 178.386719 146.945312 178.402344 147.003906 C 178.097656 147.136719 177.785156 147.253906 177.492188 147.40625 C 177.210938 147.554688 176.953125 147.742188 176.722656 148.015625 C 177.074219 147.949219 177.425781 147.886719 177.777344 147.824219 C 177.074219 148.382812 177.257812 149.003906 177.597656 149.628906 C 177.90625 150.199219 178.21875 150.769531 178.570312 151.3125 C 178.703125 151.519531 178.9375 151.65625 179.140625 151.84375 C 178.964844 152.074219 178.351562 152.179688 178.648438 152.804688 C 178.996094 152.160156 179.433594 151.898438 179.976562 151.992188 C 180.089844 152.011719 180.203125 152.039062 180.304688 152.089844 C 180.972656 152.433594 181.359375 154.632812 180.839844 155.164062 C 180.742188 155.261719 180.582031 155.296875 180.449219 155.359375 C 180.824219 154.953125 180.875 154.503906 180.664062 153.996094 Z M 201.195312 156.085938 C 200.75 156.476562 200.273438 156.566406 199.785156 156.488281 C 199.363281 156.421875 199.121094 156.59375 198.976562 156.9375 C 198.753906 157.464844 198.539062 157.996094 198.355469 158.535156 C 198.125 159.210938 198.359375 159.8125 198.726562 160.375 C 198.925781 160.679688 199.144531 160.96875 199.429688 161.375 C 198.191406 160.882812 197.503906 160.039062 197.097656 158.921875 C 197.042969 158.933594 196.988281 158.945312 196.933594 158.953125 C 196.996094 159.683594 197.0625 160.417969 197.128906 161.160156 C 196.625 160.621094 196.5 159.9375 196.484375 159.214844 C 196.433594 159.203125 196.386719 159.195312 196.335938 159.183594 C 196.199219 159.613281 196.066406 160.042969 195.890625 160.597656 C 195.796875 160.230469 195.722656 159.941406 195.667969 159.738281 C 194.90625 159.78125 194.132812 159.824219 193.257812 159.875 C 191.277344 162.777344 189.867188 163.375 187.570312 162.152344 C 186.34375 163.003906 185.761719 164.289062 185.300781 165.65625 C 185.210938 164.21875 185.714844 162.980469 186.492188 161.933594 C 185.742188 161.933594 184.976562 161.957031 184.210938 161.925781 C 183.355469 161.886719 182.675781 161.460938 182.171875 160.796875 C 181.921875 160.46875 181.683594 160.378906 181.304688 160.519531 C 179.519531 161.183594 177.726562 161.832031 175.945312 162.511719 C 175.808594 162.5625 175.628906 162.839844 175.664062 162.953125 C 176.480469 165.507812 177.636719 167.855469 180.003906 169.351562 C 181.59375 170.351562 183.375 170.648438 185.226562 170.546875 C 185.636719 170.523438 185.90625 170.621094 186.167969 170.917969 C 186.378906 171.15625 186.648438 171.339844 186.945312 171.511719 C 186.210938 170.699219 185.683594 169.804688 185.625 168.636719 C 186.871094 170.40625 188.675781 170.585938 190.519531 170.429688 C 194.074219 170.121094 197.105469 168.570312 199.9375 166.449219 C 202.46875 164.558594 203.609375 162.035156 203.851562 159.007812 C 203.984375 157.351562 204.015625 155.691406 204.089844 154.03125 C 204.09375 153.867188 204.066406 153.699219 204.042969 153.421875 C 203.863281 153.65625 203.746094 153.804688 203.628906 153.953125 C 204.117188 152.65625 203.292969 152.066406 202.367188 151.503906 C 201.980469 151.265625 201.648438 150.941406 201.292969 150.652344 C 200.820312 150.261719 200.324219 149.917969 199.640625 149.871094 C 199.597656 150.140625 199.574219 150.382812 199.523438 150.617188 C 199.3125 151.582031 198.585938 152.074219 197.660156 151.777344 C 197.070312 151.589844 196.484375 151.300781 195.984375 150.9375 C 195.035156 150.238281 194.824219 149.203125 195.328125 148.132812 C 195.488281 147.792969 195.703125 147.476562 195.890625 147.152344 C 195.261719 146.945312 194.804688 147.203125 194.546875 147.910156 C 194.222656 148.796875 194.328125 149.691406 194.625 150.550781 C 195.382812 152.777344 196.972656 154.226562 199.109375 155.085938 C 200.042969 155.460938 201.027344 155.273438 201.996094 155.027344 C 201.644531 155.539062 201.273438 155.722656 200.113281 156.085938 C 200.449219 156.085938 200.78125 156.085938 201.195312 156.085938 Z M 155.40625 177.078125 C 157.09375 178.425781 158.402344 178.304688 159.890625 176.6875 C 160.144531 176.851562 160.40625 177.03125 160.671875 177.199219 C 162.585938 178.414062 164.417969 178.164062 165.71875 176.511719 C 165.773438 176.441406 165.820312 176.359375 165.917969 176.207031 C 164.332031 176.640625 163.265625 175.859375 162.308594 174.875 C 160.691406 173.21875 159.636719 171.203125 158.765625 169.09375 C 156.320312 163.195312 155.097656 157.058594 155.320312 150.660156 C 155.375 149.050781 155.570312 147.449219 156.148438 145.941406 C 156.414062 145.253906 156.777344 144.582031 157.226562 144.003906 C 157.902344 143.136719 158.824219 142.953125 159.859375 143.3125 C 159.976562 143.355469 160.097656 143.390625 160.238281 143.378906 C 159.074219 142.285156 157.816406 141.324219 156.097656 141.644531 C 154.363281 141.964844 153.578125 143.367188 152.855469 144.804688 C 152.773438 144.800781 152.691406 144.8125 152.628906 144.789062 C 151.214844 144.222656 149.898438 144.882812 149.191406 146.164062 C 148.761719 146.945312 148.460938 147.796875 148.070312 148.679688 C 147.921875 148.679688 147.679688 148.679688 147.433594 148.683594 C 146.15625 148.691406 145.269531 149.230469 144.917969 150.449219 C 144.582031 151.617188 144.277344 152.828125 144.222656 154.03125 C 143.925781 160.3125 145.148438 166.304688 147.914062 171.957031 C 148.4375 173.023438 149.207031 173.976562 149.910156 174.949219 C 150.148438 175.277344 150.507812 175.539062 150.847656 175.78125 C 151.773438 176.441406 152.484375 176.382812 153.3125 175.605469 C 153.40625 175.511719 153.484375 175.40625 153.546875 175.332031 C 154.210938 175.957031 154.769531 176.566406 155.40625 177.078125 Z M 221.457031 175.378906 C 222.445312 176.507812 223.40625 176.558594 224.707031 175.339844 C 226.15625 173.976562 227.070312 172.246094 227.816406 170.441406 C 229.945312 165.3125 231.035156 159.976562 230.796875 154.414062 C 230.746094 153.152344 230.480469 151.875 230.140625 150.652344 C 229.734375 149.183594 228.847656 148.648438 227.316406 148.6875 C 227.164062 148.691406 227.011719 148.6875 226.878906 148.6875 C 226.621094 148.007812 226.410156 147.332031 226.109375 146.699219 C 225.648438 145.722656 225.019531 144.855469 223.871094 144.664062 C 223.328125 144.574219 222.75 144.703125 222.117188 144.738281 C 221.355469 143.304688 220.527344 141.757812 218.550781 141.601562 C 216.921875 141.472656 215.753906 142.421875 214.53125 143.515625 C 214.710938 143.484375 214.761719 143.484375 214.800781 143.464844 C 216.1875 142.847656 217.277344 143.160156 218.121094 144.421875 C 218.816406 145.460938 219.144531 146.636719 219.359375 147.84375 C 219.96875 151.308594 219.761719 154.769531 219.242188 158.222656 C 218.59375 162.507812 217.46875 166.660156 215.558594 170.570312 C 214.769531 172.191406 213.871094 173.753906 212.550781 175.003906 C 212.0625 175.46875 211.476562 175.882812 210.859375 176.144531 C 210.363281 176.351562 209.757812 176.292969 209.226562 176.347656 C 210.023438 178.242188 212.324219 178.421875 215.105469 176.6875 C 215.226562 176.820312 215.351562 176.957031 215.476562 177.09375 C 216.339844 178.023438 217.4375 178.324219 218.535156 177.699219 C 219.378906 177.214844 220.09375 176.5 220.855469 175.875 C 221.042969 175.71875 221.175781 175.5 221.332031 175.316406 C 221.394531 175.347656 221.4375 175.355469 221.457031 175.378906 Z M 194.304688 184.859375 C 194.84375 184.738281 194.980469 184.519531 194.976562 183.980469 C 194.953125 180.179688 194.96875 176.375 194.972656 172.574219 C 194.972656 172.464844 194.953125 172.355469 194.941406 172.179688 C 192.457031 173.203125 189.882812 173.40625 187.113281 173.394531 C 187.113281 175.320312 187.113281 177.214844 187.113281 179.109375 C 187.046875 179.109375 186.980469 179.109375 186.914062 179.109375 C 186.816406 177.421875 186.699219 175.738281 186.644531 174.050781 C 186.625 173.5 186.453125 173.300781 185.914062 173.355469 C 185.597656 173.390625 185.273438 173.363281 184.878906 173.363281 C 184.8125 176.542969 184.746094 179.707031 184.679688 182.871094 C 184.652344 182.871094 184.625 182.875 184.601562 182.875 C 184.441406 181.542969 184.28125 180.210938 184.128906 178.878906 C 183.921875 177.136719 183.722656 175.390625 183.527344 173.644531 C 183.488281 173.328125 183.410156 173.09375 183.019531 173.105469 C 182.871094 173.113281 182.71875 173.050781 182.570312 173.027344 C 181.351562 172.832031 181.300781 172.832031 181.28125 174.121094 C 181.242188 177.292969 181.253906 180.464844 181.242188 183.632812 C 181.242188 184.128906 181.242188 184.621094 181.242188 185.179688 C 185.679688 185.535156 190.003906 185.804688 194.304688 184.859375 Z M 189.292969 157.214844 C 189.34375 158.246094 189.394531 159.246094 189.445312 160.300781 C 189.097656 160.269531 188.835938 160.246094 188.578125 160.226562 C 188.5625 160.265625 188.542969 160.308594 188.523438 160.351562 C 188.929688 160.535156 189.335938 160.714844 189.738281 160.898438 C 189.738281 160.925781 189.734375 160.953125 189.734375 160.976562 C 189.371094 160.953125 189.007812 160.929688 188.644531 160.90625 C 188.621094 160.945312 188.59375 160.988281 188.570312 161.027344 C 188.890625 161.195312 189.195312 161.4375 189.539062 161.515625 C 190.5625 161.742188 191.675781 161.21875 192.152344 160.28125 C 192.589844 159.414062 192.804688 158.523438 192.429688 157.53125 C 192.226562 156.996094 192.148438 156.363281 192.195312 155.789062 C 192.390625 153.375 192.652344 150.964844 192.90625 148.558594 C 192.976562 147.875 193.078125 147.195312 193.203125 146.519531 C 193.277344 146.113281 193.429688 145.722656 193.570312 145.253906 C 192.941406 144.441406 192.128906 143.789062 190.960938 143.746094 C 190.316406 143.726562 189.664062 143.726562 189.015625 143.75 C 188.136719 143.785156 187.621094 144.339844 187.25 145.101562 C 188.171875 144.027344 189.3125 143.796875 190.617188 144.183594 C 189.792969 144.308594 188.820312 144.046875 188.476562 145.046875 C 189.015625 145.046875 189.675781 145.046875 190.394531 145.046875 C 190.308594 145.113281 190.285156 145.148438 190.25 145.15625 C 188.746094 145.523438 188.632812 145.335938 188.5625 147.144531 C 188.464844 149.585938 188.542969 152.03125 188.550781 154.472656 C 188.554688 154.816406 188.585938 155.15625 188.609375 155.539062 C 189.105469 155.582031 189.585938 155.625 190.082031 155.667969 C 189.4375 155.933594 188.832031 156.175781 188.226562 156.421875 C 188.242188 156.4375 188.261719 156.453125 188.277344 156.46875 C 189.039062 156.402344 189.800781 156.273438 190.558594 156.289062 C 191.445312 156.304688 191.710938 156.582031 191.820312 157.445312 C 191.898438 158.070312 191.945312 158.703125 191.914062 159.328125 C 191.878906 160.089844 191.472656 160.503906 190.671875 160.695312 C 191.433594 160.363281 191.480469 159.71875 191.445312 159.039062 C 191.425781 158.660156 191.40625 158.277344 191.375 157.898438 C 191.289062 156.914062 191.175781 156.792969 190.167969 156.847656 C 189.621094 156.878906 189.082031 157.03125 188.539062 157.128906 C 188.550781 157.191406 188.5625 157.253906 188.574219 157.316406 C 188.792969 157.285156 189.011719 157.253906 189.292969 157.214844 Z M 183.992188 145.28125 C 183.15625 145.625 182.304688 145.976562 181.457031 146.324219 C 181.480469 146.417969 181.5 146.515625 181.523438 146.609375 C 182.105469 146.609375 182.683594 146.609375 183.355469 146.609375 C 182.671875 146.902344 182.085938 147.148438 181.503906 147.398438 C 181.515625 147.445312 181.523438 147.496094 181.53125 147.542969 C 181.683594 147.554688 181.835938 147.570312 181.992188 147.585938 C 182.429688 150.195312 182.867188 152.808594 183.308594 155.449219 C 183.667969 155.449219 183.984375 155.449219 184.464844 155.449219 C 183.796875 155.832031 183.199219 156.085938 182.925781 156.828125 C 184.332031 155.785156 185.5625 155.71875 186.152344 156.585938 C 186.929688 157.726562 186.871094 159.519531 185.984375 160.035156 C 186.640625 159.273438 186.261719 158.496094 186.050781 157.738281 C 185.691406 156.429688 184.601562 156.171875 183.578125 157.125 C 183.671875 157.214844 183.832031 157.289062 183.859375 157.394531 C 183.953125 157.78125 183.996094 158.179688 184.078125 158.574219 C 184.15625 158.941406 184.257812 159.304688 184.359375 159.714844 C 184.164062 159.714844 184.003906 159.714844 183.847656 159.714844 C 183.835938 159.75 183.820312 159.789062 183.808594 159.824219 C 184.09375 159.976562 184.378906 160.125 184.667969 160.277344 C 184.660156 160.300781 184.652344 160.324219 184.648438 160.347656 C 184.328125 160.28125 184.003906 160.214844 183.679688 160.144531 C 183.492188 160.773438 183.964844 160.980469 184.398438 161.0625 C 185.242188 161.222656 186.046875 161.015625 186.71875 160.476562 C 187.152344 160.125 187.246094 159.609375 187.207031 159.070312 C 186.964844 155.71875 186.714844 152.363281 186.488281 149.011719 C 186.429688 148.117188 186.441406 147.214844 186.40625 146.316406 C 186.398438 146.136719 186.398438 145.910156 186.300781 145.777344 C 185.683594 144.96875 184.875 144.507812 183.835938 144.574219 C 182.757812 144.644531 181.792969 144.964844 181.199219 145.972656 C 182.101562 145.566406 183.011719 145.230469 183.992188 145.28125 Z M 176.585938 155 C 176.453125 154.886719 176.214844 154.820312 176.039062 154.835938 C 171.835938 155.277344 167.683594 156.023438 163.558594 156.933594 C 163.117188 157.03125 162.933594 157.238281 162.890625 157.644531 C 162.773438 158.761719 162.984375 159.804688 163.527344 160.792969 C 163.75 161.199219 164.03125 161.3125 164.507812 161.21875 C 167.449219 160.644531 170.390625 160.042969 173.347656 159.566406 C 175.476562 159.222656 177.632812 159.050781 179.777344 158.804688 C 179.988281 158.78125 180.195312 158.769531 180.421875 158.75 C 180.488281 158.328125 180.300781 158.242188 179.941406 158.273438 C 175.574219 158.648438 171.257812 159.328125 166.976562 160.242188 C 166.226562 160.402344 165.476562 160.539062 164.734375 160.722656 C 164.289062 160.832031 163.984375 160.714844 163.8125 160.296875 C 163.621094 159.832031 163.449219 159.355469 163.308594 158.988281 C 163.730469 158.988281 164.085938 159.042969 164.421875 158.980469 C 167.425781 158.414062 170.414062 157.785156 173.425781 157.269531 C 175.023438 156.996094 176.652344 156.910156 178.265625 156.738281 C 178.371094 156.730469 178.472656 156.71875 178.46875 156.71875 C 177.863281 156.160156 177.238281 155.566406 176.585938 155 Z M 205.347656 157.601562 C 205.351562 157.730469 205.527344 157.9375 205.652344 157.964844 C 207.40625 158.339844 209.164062 158.703125 210.925781 159.039062 C 211.144531 159.078125 211.394531 158.929688 211.671875 158.859375 C 211.613281 159.105469 211.570312 159.386719 211.484375 159.652344 C 211.140625 160.726562 210.925781 160.847656 209.84375 160.625 C 208.441406 160.332031 207.042969 160.03125 205.636719 159.757812 C 205.445312 159.722656 205.230469 159.808594 205.027344 159.839844 C 205.03125 159.917969 205.035156 159.996094 205.042969 160.070312 C 205.855469 160.242188 206.667969 160.410156 207.484375 160.578125 C 208.550781 160.800781 209.613281 161.039062 210.683594 161.226562 C 210.875 161.261719 211.191406 161.152344 211.296875 161 C 212.035156 159.953125 212.269531 158.769531 212.070312 157.519531 C 212.039062 157.316406 211.785156 157.035156 211.589844 156.992188 C 209.613281 156.5625 207.628906 156.175781 205.644531 155.78125 C 205.570312 155.765625 205.496094 155.769531 205.332031 155.761719 C 205.332031 156.386719 205.3125 156.996094 205.347656 157.601562 Z M 198.898438 146.800781 C 198.949219 146.777344 199 146.757812 199.050781 146.738281 C 199.363281 147.53125 199.675781 148.328125 200.023438 149.214844 C 200.191406 149.269531 200.496094 149.371094 200.804688 149.46875 C 200.964844 146.738281 198.355469 144.128906 195.867188 144.574219 C 195.425781 144.652344 195.023438 144.917969 194.652344 145.21875 C 195.007812 145.144531 195.359375 145.066406 195.710938 144.992188 C 194.800781 145.773438 194.679688 145.972656 194.757812 146.683594 C 196.015625 146.351562 197.359375 146.667969 199.082031 148.636719 C 199.019531 148.023438 198.957031 147.410156 198.898438 146.800781 Z M 207.769531 161.445312 C 207.667969 162.234375 207.554688 163 207.480469 163.769531 C 207.21875 166.550781 207.09375 169.335938 207.773438 172.082031 C 207.925781 172.683594 208.160156 173.285156 208.464844 173.828125 C 209.199219 175.128906 210.378906 175.351562 211.523438 174.386719 C 212.070312 173.925781 212.570312 173.367188 212.949219 172.761719 C 213.636719 171.652344 214.21875 170.476562 214.847656 169.328125 C 214.789062 169.296875 214.734375 169.265625 214.675781 169.234375 C 214.460938 169.652344 214.28125 170.097656 214.019531 170.484375 C 213.304688 171.539062 212.65625 172.660156 211.800781 173.59375 C 210.464844 175.046875 209.269531 174.75 208.617188 172.882812 C 207.964844 171.015625 207.910156 169.058594 208 167.113281 C 208.074219 165.492188 208.277344 163.882812 208.421875 162.269531 C 208.441406 162.0625 208.464844 161.855469 208.492188 161.601562 C 208.226562 161.546875 208.042969 161.507812 207.769531 161.445312 Z M 166.511719 161.597656 C 166.625 162.582031 166.753906 163.539062 166.84375 164.503906 C 167.078125 166.941406 167.179688 169.386719 166.667969 171.804688 C 166.527344 172.464844 166.285156 173.128906 165.957031 173.722656 C 165.488281 174.582031 164.707031 174.78125 163.933594 174.179688 C 163.222656 173.625 162.589844 172.9375 162.042969 172.214844 C 161.460938 171.445312 161.019531 170.566406 160.519531 169.742188 C 160.511719 169.757812 160.472656 169.792969 160.480469 169.8125 C 161.128906 171.371094 161.890625 172.863281 163.097656 174.078125 C 163.359375 174.34375 163.6875 174.566406 164.019531 174.742188 C 164.78125 175.144531 165.566406 175.058594 166.089844 174.378906 C 166.53125 173.800781 166.902344 173.121094 167.113281 172.429688 C 167.8125 170.167969 167.789062 167.832031 167.65625 165.5 C 167.578125 164.171875 167.40625 162.84375 167.269531 161.445312 C 166.960938 161.507812 166.757812 161.550781 166.511719 161.597656 Z M 217.980469 146.871094 C 217.839844 146.382812 217.632812 145.898438 217.367188 145.464844 C 216.742188 144.441406 215.667969 144.160156 214.722656 144.886719 C 213.960938 145.46875 213.273438 146.191406 212.710938 146.96875 C 211.28125 148.941406 209.578125 153.097656 209.054688 155.621094 C 209.265625 155.667969 209.476562 155.714844 209.722656 155.769531 C 210.066406 154.714844 210.386719 153.679688 210.734375 152.660156 C 211.398438 150.722656 212.175781 148.832031 213.335938 147.136719 C 213.761719 146.511719 214.273438 145.921875 214.851562 145.4375 C 215.730469 144.707031 216.632812 144.867188 217.117188 145.90625 C 217.558594 146.859375 217.867188 147.902344 218.0625 148.941406 C 218.277344 150.058594 218.292969 151.214844 218.40625 152.46875 C 218.5 150.523438 218.492188 148.675781 217.980469 146.871094 Z M 157.167969 147.757812 C 157.289062 147.078125 157.585938 146.402344 157.933594 145.800781 C 158.449219 144.902344 159.28125 144.699219 160.050781 145.386719 C 160.816406 146.074219 161.511719 146.898438 162.054688 147.777344 C 163.464844 150.046875 164.292969 152.574219 165.054688 155.121094 C 165.113281 155.320312 165.175781 155.519531 165.242188 155.738281 C 165.390625 155.722656 165.523438 155.71875 165.648438 155.695312 C 165.738281 155.679688 165.824219 155.640625 166.003906 155.582031 C 165.597656 154.371094 165.238281 153.167969 164.792969 152 C 163.933594 149.746094 162.972656 147.535156 161.3125 145.726562 C 161.003906 145.394531 160.644531 145.085938 160.261719 144.851562 C 159.207031 144.214844 158.152344 144.449219 157.589844 145.546875 C 157.203125 146.296875 156.90625 147.140625 156.796875 147.972656 C 156.601562 149.457031 156.578125 150.960938 156.484375 152.457031 C 156.5 152.457031 156.515625 152.457031 156.535156 152.453125 C 156.738281 150.886719 156.890625 149.3125 157.167969 147.757812 Z M 162.09375 154.097656 C 161.539062 154.078125 161.21875 154.488281 161.128906 154.933594 C 160.933594 155.914062 160.726562 156.917969 160.746094 157.910156 C 160.777344 159.699219 161.210938 161.429688 162.050781 163.023438 C 162.347656 163.589844 162.730469 164.140625 163.179688 164.589844 C 163.933594 165.339844 164.753906 165.035156 164.960938 163.988281 C 165.011719 163.734375 165.027344 163.472656 164.972656 163.195312 C 164.835938 163.5 164.71875 163.816406 164.550781 164.105469 C 164.332031 164.488281 164.019531 164.554688 163.730469 164.191406 C 163.488281 163.878906 163.257812 163.539062 163.097656 163.175781 C 162.09375 160.871094 161.582031 158.460938 161.613281 155.945312 C 161.617188 155.699219 161.644531 155.449219 161.699219 155.207031 C 161.867188 154.445312 162.179688 154.339844 162.808594 154.824219 C 162.886719 154.878906 162.960938 154.941406 163.035156 155 C 162.878906 154.535156 162.636719 154.121094 162.09375 154.097656 Z M 210.710938 164.929688 C 211.453125 165.1875 211.921875 164.589844 212.304688 164.070312 C 213.457031 162.503906 213.992188 160.691406 214.167969 158.796875 C 214.269531 157.707031 214.128906 156.597656 214.074219 155.5 C 214.066406 155.316406 213.976562 155.132812 213.898438 154.960938 C 213.703125 154.542969 213.492188 154.101562 212.941406 154.101562 C 212.386719 154.097656 212.121094 154.503906 211.886719 154.9375 C 211.941406 154.957031 211.976562 154.980469 211.996094 154.972656 C 212.316406 154.839844 212.632812 154.699219 212.949219 154.5625 C 213.089844 154.925781 213.328125 155.277344 213.359375 155.644531 C 213.511719 157.496094 213.152344 159.296875 212.664062 161.066406 C 212.460938 161.796875 212.15625 162.5 211.882812 163.210938 C 211.800781 163.421875 211.703125 163.644531 211.554688 163.808594 C 211.347656 164.039062 211.085938 164.222656 210.847656 164.421875 C 210.648438 164.1875 210.429688 163.964844 210.253906 163.710938 C 210.148438 163.5625 210.109375 163.371094 210.042969 163.199219 C 210.011719 163.886719 209.945312 164.660156 210.710938 164.929688 Z M 195.585938 148.96875 C 195.523438 149.179688 195.671875 149.582031 195.855469 149.714844 C 196.539062 150.222656 197.25 150.707031 198.003906 151.09375 C 198.554688 151.375 199.25 150.746094 199.148438 150.03125 C 199.085938 149.589844 198.867188 149.097656 198.5625 148.777344 C 197.949219 148.136719 197.230469 147.597656 196.425781 146.90625 C 196.085938 147.710938 195.78125 148.324219 195.585938 148.96875 Z M 194.050781 154.429688 C 194.050781 155.394531 194.050781 156.3125 194.050781 157.289062 C 193.890625 157.253906 193.738281 157.21875 193.4375 157.15625 C 193.628906 157.351562 193.746094 157.449219 193.835938 157.566406 C 193.929688 157.691406 193.996094 157.835938 194.074219 157.96875 C 193.945312 158.039062 193.820312 158.109375 193.671875 158.191406 C 194.132812 158.539062 194.625 158.472656 195.117188 158.269531 C 196.285156 157.789062 196.757812 156.605469 196.832031 155.566406 C 196.84375 155.449219 196.679688 155.296875 196.5625 155.203125 C 196.355469 155.046875 196.121094 154.921875 195.941406 154.8125 C 195.867188 155.570312 195.816406 156.320312 195.703125 157.058594 C 195.675781 157.25 195.453125 157.414062 195.253906 157.535156 C 195.828125 156.632812 195.582031 155.699219 195.394531 154.808594 C 195.242188 154.066406 194.136719 153.960938 193.347656 154.6875 C 193.660156 154.574219 193.832031 154.511719 194.050781 154.429688 Z M 230.875 163.152344 C 231.132812 163.152344 231.371094 163.152344 231.671875 163.152344 C 231.359375 164.1875 231.410156 165.40625 230.21875 166.039062 C 230.523438 166.332031 230.714844 166.355469 230.949219 166.050781 C 231.132812 165.8125 231.289062 165.542969 231.410156 165.265625 C 231.90625 164.113281 232.152344 162.90625 232.074219 161.648438 C 232.03125 160.9375 231.945312 160.851562 231.300781 160.746094 C 231.160156 161.542969 231.023438 162.308594 230.875 163.152344 Z M 143.394531 163.164062 C 143.617188 163.164062 143.839844 163.164062 144.117188 163.164062 C 143.972656 162.324219 143.839844 161.558594 143.707031 160.78125 C 143.265625 160.703125 143.03125 160.875 142.980469 161.292969 C 142.777344 162.957031 143.101562 164.515625 143.96875 165.957031 C 144.191406 166.324219 144.488281 166.34375 144.878906 166.054688 C 144.046875 165.71875 143.398438 164.382812 143.394531 163.164062 Z M 193.222656 154.019531 C 193.777344 153.894531 194.316406 153.777344 194.867188 153.652344 C 194.566406 153.042969 194.238281 152.371094 193.890625 151.660156 C 193.628906 152.480469 194.105469 153.464844 193.222656 154.019531 Z M 193.222656 154.019531 " fill-opacity="1" fill-rule="nonzero"/></g><path fill="#d9d9d9" d="M 200.113281 156.085938 C 200.449219 156.085938 200.78125 156.085938 201.195312 156.085938 C 200.75 156.476562 200.273438 156.566406 199.785156 156.488281 C 199.363281 156.421875 199.121094 156.59375 198.976562 156.9375 C 198.753906 157.464844 198.539062 157.996094 198.355469 158.535156 C 198.125 159.210938 198.359375 159.8125 198.726562 160.375 C 198.925781 160.679688 199.144531 160.96875 199.429688 161.375 C 198.191406 160.882812 197.503906 160.039062 197.097656 158.921875 C 197.042969 158.933594 196.988281 158.945312 196.933594 158.953125 C 196.996094 159.683594 197.0625 160.417969 197.128906 161.160156 C 196.625 160.621094 196.503906 159.9375 196.484375 159.214844 C 196.433594 159.203125 196.386719 159.195312 196.335938 159.183594 C 196.199219 159.613281 196.066406 160.042969 195.890625 160.597656 C 195.796875 160.230469 195.722656 159.941406 195.667969 159.738281 C 194.90625 159.78125 194.132812 159.824219 193.257812 159.875 C 191.277344 162.777344 189.867188 163.375 187.570312 162.152344 C 186.34375 163.003906 185.761719 164.289062 185.300781 165.65625 C 185.210938 164.21875 185.714844 162.980469 186.492188 161.933594 C 185.742188 161.933594 184.976562 161.957031 184.210938 161.925781 C 183.355469 161.886719 182.675781 161.460938 182.171875 160.796875 C 181.921875 160.46875 181.683594 160.378906 181.304688 160.519531 C 179.519531 161.183594 177.726562 161.832031 175.945312 162.511719 C 175.808594 162.5625 175.628906 162.839844 175.664062 162.953125 C 176.480469 165.507812 177.636719 167.855469 180.003906 169.351562 C 181.59375 170.351562 183.375 170.648438 185.226562 170.546875 C 185.636719 170.523438 185.90625 170.621094 186.167969 170.917969 C 186.378906 171.15625 186.648438 171.339844 186.945312 171.511719 C 186.210938 170.699219 185.683594 169.804688 185.625 168.636719 C 186.871094 170.40625 188.675781 170.585938 190.519531 170.429688 C 194.074219 170.121094 197.105469 168.570312 199.9375 166.449219 C 202.46875 164.558594 203.609375 162.035156 203.851562 159.007812 C 203.984375 157.351562 204.015625 155.691406 204.089844 154.03125 C 204.09375 153.867188 204.066406 153.699219 204.042969 153.421875 C 203.863281 153.65625 203.746094 153.804688 203.628906 153.953125 C 204.117188 152.65625 203.292969 152.066406 202.367188 151.503906 C 201.980469 151.265625 201.648438 150.941406 201.292969 150.652344 C 200.820312 150.261719 200.324219 149.917969 199.640625 149.871094 C 199.597656 150.140625 199.574219 150.382812 199.523438 150.617188 C 199.3125 151.582031 198.585938 152.074219 197.660156 151.777344 C 197.070312 151.589844 196.484375 151.300781 195.984375 150.9375 C 195.035156 150.238281 194.824219 149.203125 195.328125 148.132812 C 195.488281 147.792969 195.703125 147.476562 195.890625 147.152344 C 195.261719 146.945312 194.804688 147.203125 194.546875 147.910156 C 194.222656 148.796875 194.328125 149.691406 194.625 150.550781 C 195.382812 152.777344 196.972656 154.226562 199.109375 155.085938 C 200.042969 155.460938 201.027344 155.273438 201.996094 155.027344 C 201.644531 155.539062 201.273438 155.722656 200.113281 156.085938 Z M 200.113281 156.085938 " fill-opacity="1" fill-rule="nonzero"/><path fill="#d9d9d9" d="M 153.3125 175.605469 C 152.484375 176.382812 151.777344 176.441406 150.847656 175.78125 C 150.507812 175.539062 150.148438 175.277344 149.910156 174.945312 C 149.207031 173.976562 148.4375 173.023438 147.914062 171.957031 C 145.148438 166.304688 143.925781 160.3125 144.222656 154.03125 C 144.277344 152.828125 144.582031 151.617188 144.917969 150.449219 C 145.269531 149.230469 146.15625 148.691406 147.433594 148.683594 C 147.679688 148.679688 147.921875 148.679688 148.070312 148.679688 C 148.460938 147.796875 148.761719 146.945312 149.191406 146.164062 C 149.898438 144.882812 151.214844 144.222656 152.628906 144.789062 C 152.691406 144.8125 152.773438 144.800781 152.855469 144.804688 C 153.578125 143.367188 154.363281 141.964844 156.097656 141.644531 C 157.816406 141.324219 159.074219 142.285156 160.238281 143.378906 C 160.097656 143.390625 159.976562 143.355469 159.859375 143.3125 C 158.824219 142.953125 157.902344 143.136719 157.226562 144.003906 C 156.777344 144.582031 156.414062 145.253906 156.148438 145.941406 C 155.570312 147.449219 155.375 149.050781 155.320312 150.660156 C 155.097656 157.058594 156.320312 163.195312 158.765625 169.097656 C 159.636719 171.203125 160.691406 173.21875 162.308594 174.875 C 163.265625 175.859375 164.332031 176.640625 165.917969 176.207031 C 165.820312 176.359375 165.773438 176.441406 165.71875 176.511719 C 164.417969 178.164062 162.589844 178.414062 160.671875 177.199219 C 160.40625 177.03125 160.144531 176.851562 159.890625 176.6875 C 158.402344 178.304688 157.09375 178.425781 155.40625 177.078125 C 154.769531 176.570312 154.210938 175.960938 153.546875 175.332031 C 153.484375 175.402344 153.40625 175.511719 153.3125 175.605469 Z M 149.460938 151.28125 C 150.121094 151.058594 150.738281 151.554688 150.722656 152.25 C 150.609375 158.167969 151.851562 163.851562 153.753906 169.414062 C 153.898438 169.828125 153.796875 170.089844 153.464844 170.285156 C 152.808594 170.667969 152.136719 170.746094 151.457031 170.265625 C 151.441406 170.332031 151.40625 170.394531 151.425781 170.429688 C 152.464844 172.320312 153.476562 174.246094 155.011719 175.789062 C 155.589844 176.371094 156.316406 176.863281 157.0625 177.199219 C 157.9375 177.59375 158.757812 177.234375 159.441406 176.394531 C 158.824219 175.707031 158.191406 175.023438 157.582031 174.324219 C 155.652344 172.101562 154.414062 169.515625 153.660156 166.695312 C 152.453125 162.167969 151.421875 157.609375 151.5 152.878906 C 151.535156 150.589844 151.824219 148.347656 152.628906 146.195312 C 152.742188 145.890625 152.675781 145.75 152.390625 145.625 C 151.5625 145.253906 150.609375 145.523438 150.082031 146.339844 C 149.398438 147.402344 149.128906 148.621094 148.894531 149.839844 C 148.765625 150.515625 148.675781 151.195312 148.566406 151.863281 C 148.875 151.65625 149.140625 151.390625 149.460938 151.28125 Z M 148.519531 172.054688 C 149.238281 173.039062 149.929688 174.054688 150.757812 174.945312 C 151.765625 176.035156 152.4375 175.953125 153.421875 174.890625 C 148.34375 167.085938 146.863281 158.574219 148.152344 149.476562 C 146.835938 149.074219 145.851562 149.488281 145.347656 150.761719 C 145.089844 151.40625 144.96875 152.105469 144.902344 152.820312 C 145.144531 152.589844 145.351562 152.28125 145.640625 152.15625 C 145.921875 152.035156 146.308594 152.019531 146.609375 152.101562 C 146.96875 152.195312 146.988281 152.554688 146.96875 152.90625 C 146.585938 158.84375 147.648438 164.542969 149.828125 170.054688 C 149.929688 170.3125 149.941406 170.78125 149.785156 170.921875 C 149.539062 171.144531 149.121094 171.242188 148.769531 171.253906 C 148.523438 171.265625 148.269531 171.050781 147.90625 170.882812 C 148.136719 171.332031 148.28125 171.730469 148.519531 172.054688 Z M 160.5 173.617188 C 159.636719 172.296875 158.949219 170.863281 158.195312 169.472656 C 158.078125 169.265625 158.003906 169.035156 157.902344 168.796875 C 157.148438 169.828125 156.613281 169.960938 155.34375 169.367188 C 155.628906 169.925781 155.851562 170.402344 156.109375 170.859375 C 157.175781 172.75 158.421875 174.503906 160.066406 175.945312 C 160.863281 176.648438 161.738281 177.210938 162.808594 177.417969 C 163.492188 177.554688 164.035156 177.332031 164.558594 176.835938 C 162.660156 176.402344 161.46875 175.097656 160.5 173.617188 Z M 154.554688 150.898438 C 154.691406 149.859375 154.800781 148.824219 154.976562 147.804688 C 155.214844 146.441406 155.582031 145.121094 156.394531 143.96875 C 157.003906 143.105469 157.464844 142.816406 158.480469 142.617188 C 157.78125 141.902344 156.230469 141.820312 155.214844 142.511719 C 154.816406 142.78125 154.453125 143.160156 154.191406 143.566406 C 153.167969 145.164062 152.800781 146.980469 152.5625 148.824219 C 152.464844 149.578125 152.398438 150.335938 152.304688 151.238281 C 153.117188 150.285156 153.523438 150.242188 154.554688 150.898438 Z M 154.554688 150.898438 " fill-opacity="1" fill-rule="nonzero"/><path fill="#d9d9d9" d="M 220.855469 175.875 C 220.09375 176.5 219.378906 177.214844 218.535156 177.699219 C 217.4375 178.324219 216.339844 178.027344 215.476562 177.09375 C 215.351562 176.957031 215.226562 176.820312 215.105469 176.6875 C 212.324219 178.421875 210.023438 178.242188 209.226562 176.351562 C 209.757812 176.292969 210.363281 176.351562 210.859375 176.144531 C 211.476562 175.882812 212.0625 175.46875 212.550781 175.003906 C 213.871094 173.753906 214.769531 172.191406 215.558594 170.570312 C 217.46875 166.660156 218.59375 162.507812 219.242188 158.222656 C 219.761719 154.769531 219.96875 151.308594 219.359375 147.84375 C 219.144531 146.636719 218.816406 145.460938 218.121094 144.421875 C 217.277344 143.160156 216.1875 142.847656 214.800781 143.464844 C 214.761719 143.484375 214.710938 143.484375 214.53125 143.515625 C 215.753906 142.421875 216.921875 141.472656 218.550781 141.601562 C 220.527344 141.757812 221.355469 143.304688 222.117188 144.738281 C 222.75 144.703125 223.328125 144.574219 223.871094 144.664062 C 225.019531 144.855469 225.648438 145.722656 226.109375 146.699219 C 226.410156 147.332031 226.621094 148.007812 226.878906 148.6875 C 227.011719 148.6875 227.164062 148.691406 227.316406 148.6875 C 228.847656 148.648438 229.734375 149.183594 230.140625 150.652344 C 230.480469 151.875 230.746094 153.152344 230.796875 154.414062 C 231.035156 159.976562 229.945312 165.316406 227.816406 170.441406 C 227.070312 172.246094 226.15625 173.976562 224.707031 175.339844 C 223.40625 176.558594 222.445312 176.507812 221.457031 175.378906 C 221.4375 175.355469 221.394531 175.347656 221.332031 175.320312 C 221.175781 175.5 221.042969 175.71875 220.855469 175.875 Z M 223.246094 149.730469 C 223.695312 152.5625 223.570312 155.40625 223.144531 158.230469 C 222.617188 161.707031 221.910156 165.144531 220.765625 168.476562 C 219.863281 171.101562 218.402344 173.382812 216.476562 175.375 C 216.160156 175.703125 215.863281 176.046875 215.5625 176.382812 C 216.226562 177.269531 217.128906 177.601562 218.082031 177.144531 C 218.773438 176.816406 219.445312 176.351562 219.980469 175.804688 C 221.535156 174.222656 222.546875 172.265625 223.578125 170.453125 C 223.050781 170.46875 222.5 170.5625 221.976562 170.476562 C 221.242188 170.355469 221.082031 169.929688 221.316406 169.234375 C 223.140625 163.789062 224.359375 158.238281 224.273438 152.460938 C 224.265625 151.898438 224.371094 151.464844 224.9375 151.289062 C 225.46875 151.125 225.910156 151.308594 226.234375 151.765625 C 226.261719 151.808594 226.304688 151.839844 226.417969 151.964844 C 226.175781 150.027344 225.933594 148.199219 225.046875 146.539062 C 224.457031 145.441406 223.417969 145.183594 222.355469 145.789062 C 222.664062 147.132812 223.035156 148.417969 223.246094 149.730469 Z M 222.128906 175.394531 C 222.753906 175.828125 223.214844 175.828125 223.800781 175.347656 C 225.246094 174.164062 226.253906 172.652344 227.082031 170.890625 C 226.761719 171.039062 226.542969 171.171875 226.300781 171.246094 C 225.890625 171.378906 225.511719 171.304688 225.207031 170.964844 C 224.921875 170.65625 225.027344 170.355469 225.164062 170.015625 C 227.363281 164.492188 228.429688 158.78125 228.023438 152.824219 C 227.976562 152.132812 228.632812 151.738281 229.28125 152.101562 C 229.585938 152.273438 229.820312 152.566406 230.078125 152.792969 C 230.167969 151.949219 229.722656 150.535156 229.144531 149.933594 C 228.480469 149.242188 227.675781 149.246094 226.835938 149.445312 C 228.144531 158.566406 226.652344 167.054688 221.5625 174.917969 C 221.691406 175.03125 221.898438 175.230469 222.128906 175.394531 Z M 217.132812 168.816406 C 215.570312 172.019531 214.242188 175.410156 210.515625 176.910156 C 210.949219 177.332031 211.484375 177.546875 212.152344 177.425781 C 213.390625 177.199219 214.363281 176.503906 215.246094 175.664062 C 217.066406 173.933594 218.445312 171.882812 219.519531 169.621094 C 219.546875 169.558594 219.554688 169.484375 219.578125 169.394531 C 218.382812 169.972656 217.800781 169.832031 217.132812 168.816406 Z M 220.707031 143.394531 C 219.78125 141.964844 217.789062 141.605469 216.398438 142.640625 C 217.621094 142.675781 218.320312 143.425781 218.859375 144.363281 C 219.773438 145.953125 220.074219 147.722656 220.277344 149.511719 C 220.332031 149.96875 220.367188 150.421875 220.402344 150.832031 C 220.808594 150.703125 221.222656 150.453125 221.617188 150.484375 C 221.976562 150.511719 222.316406 150.839844 222.667969 151.039062 C 222.410156 148.433594 222.226562 145.746094 220.707031 143.394531 Z M 220.707031 143.394531 " fill-opacity="1" fill-rule="nonzero"/><path fill="#d9d9d9" d="M 181.242188 185.179688 C 185.679688 185.535156 190.003906 185.804688 194.304688 184.859375 C 194.84375 184.738281 194.980469 184.519531 194.976562 183.980469 C 194.953125 180.179688 194.96875 176.375 194.972656 172.574219 C 194.972656 172.464844 194.953125 172.355469 194.941406 172.179688 C 192.457031 173.203125 189.882812 173.40625 187.113281 173.394531 C 187.113281 175.320312 187.113281 177.214844 187.113281 179.109375 C 187.046875 179.109375 186.980469 179.109375 186.914062 179.109375 C 186.816406 177.421875 186.699219 175.738281 186.644531 174.050781 C 186.625 173.5 186.453125 173.300781 185.914062 173.355469 C 185.597656 173.390625 185.273438 173.363281 184.878906 173.363281 C 184.8125 176.542969 184.746094 179.707031 184.679688 182.871094 C 184.652344 182.871094 184.625 182.875 184.601562 182.875 C 184.441406 181.542969 184.28125 180.210938 184.128906 178.878906 C 183.921875 177.136719 183.722656 175.390625 183.527344 173.644531 C 183.488281 173.328125 183.410156 173.09375 183.019531 173.105469 C 182.871094 173.113281 182.71875 173.050781 182.570312 173.027344 C 181.351562 172.832031 181.300781 172.832031 181.28125 174.121094 C 181.242188 177.292969 181.253906 180.464844 181.242188 183.632812 C 181.242188 184.128906 181.242188 184.621094 181.242188 185.179688 Z M 181.242188 185.179688 " fill-opacity="1" fill-rule="nonzero"/><path fill="#d9d9d9" d="M 188.574219 157.316406 C 188.792969 157.285156 189.011719 157.253906 189.292969 157.214844 C 189.34375 158.246094 189.394531 159.246094 189.445312 160.300781 C 189.097656 160.269531 188.835938 160.246094 188.578125 160.226562 C 188.5625 160.265625 188.542969 160.308594 188.523438 160.351562 C 188.929688 160.535156 189.335938 160.714844 189.738281 160.898438 C 189.738281 160.925781 189.734375 160.953125 189.734375 160.976562 C 189.371094 160.953125 189.007812 160.929688 188.644531 160.90625 C 188.621094 160.945312 188.59375 160.988281 188.570312 161.027344 C 188.890625 161.195312 189.195312 161.4375 189.539062 161.515625 C 190.5625 161.742188 191.675781 161.21875 192.152344 160.28125 C 192.589844 159.414062 192.804688 158.523438 192.429688 157.53125 C 192.226562 156.996094 192.148438 156.363281 192.195312 155.789062 C 192.390625 153.375 192.652344 150.964844 192.90625 148.558594 C 192.976562 147.875 193.078125 147.195312 193.203125 146.519531 C 193.277344 146.113281 193.429688 145.722656 193.570312 145.253906 C 192.941406 144.441406 192.128906 143.789062 190.960938 143.746094 C 190.316406 143.726562 189.664062 143.726562 189.015625 143.75 C 188.136719 143.785156 187.621094 144.339844 187.25 145.101562 C 188.171875 144.027344 189.3125 143.796875 190.617188 144.183594 C 189.792969 144.308594 188.820312 144.046875 188.476562 145.046875 C 189.015625 145.046875 189.675781 145.046875 190.394531 145.046875 C 190.308594 145.113281 190.285156 145.148438 190.25 145.15625 C 188.746094 145.523438 188.632812 145.335938 188.5625 147.144531 C 188.464844 149.585938 188.542969 152.03125 188.550781 154.472656 C 188.554688 154.816406 188.585938 155.15625 188.609375 155.539062 C 189.105469 155.582031 189.585938 155.625 190.082031 155.667969 C 189.4375 155.933594 188.832031 156.175781 188.226562 156.421875 C 188.242188 156.4375 188.261719 156.453125 188.277344 156.46875 C 189.039062 156.402344 189.800781 156.273438 190.558594 156.289062 C 191.445312 156.304688 191.710938 156.582031 191.820312 157.445312 C 191.898438 158.070312 191.945312 158.703125 191.914062 159.328125 C 191.878906 160.089844 191.472656 160.503906 190.671875 160.695312 C 191.433594 160.363281 191.480469 159.71875 191.445312 159.039062 C 191.425781 158.660156 191.40625 158.277344 191.375 157.898438 C 191.289062 156.914062 191.175781 156.792969 190.167969 156.847656 C 189.621094 156.878906 189.082031 157.03125 188.539062 157.128906 C 188.550781 157.191406 188.5625 157.253906 188.574219 157.316406 Z M 188.574219 157.316406 " fill-opacity="1" fill-rule="nonzero"/><path fill="#d9d9d9" d="M 181.199219 145.972656 C 182.101562 145.566406 183.011719 145.230469 183.992188 145.28125 C 183.15625 145.625 182.304688 145.976562 181.457031 146.324219 C 181.480469 146.417969 181.5 146.515625 181.523438 146.609375 C 182.105469 146.609375 182.683594 146.609375 183.355469 146.609375 C 182.671875 146.902344 182.085938 147.148438 181.503906 147.398438 C 181.515625 147.445312 181.523438 147.496094 181.53125 147.542969 C 181.683594 147.554688 181.835938 147.570312 181.992188 147.585938 C 182.429688 150.195312 182.867188 152.808594 183.308594 155.449219 C 183.667969 155.449219 183.984375 155.449219 184.464844 155.449219 C 183.796875 155.832031 183.199219 156.085938 182.925781 156.828125 C 184.332031 155.785156 185.5625 155.71875 186.152344 156.585938 C 186.929688 157.726562 186.871094 159.519531 185.984375 160.035156 C 186.640625 159.273438 186.261719 158.496094 186.050781 157.738281 C 185.691406 156.429688 184.601562 156.171875 183.578125 157.125 C 183.671875 157.214844 183.832031 157.289062 183.859375 157.394531 C 183.953125 157.78125 183.996094 158.179688 184.078125 158.574219 C 184.15625 158.941406 184.257812 159.304688 184.359375 159.714844 C 184.164062 159.714844 184.003906 159.714844 183.847656 159.714844 C 183.835938 159.75 183.820312 159.789062 183.808594 159.824219 C 184.09375 159.976562 184.378906 160.125 184.667969 160.277344 C 184.660156 160.300781 184.652344 160.324219 184.648438 160.347656 C 184.328125 160.28125 184.003906 160.214844 183.679688 160.144531 C 183.492188 160.773438 183.964844 160.980469 184.402344 161.0625 C 185.242188 161.222656 186.046875 161.015625 186.71875 160.476562 C 187.152344 160.125 187.246094 159.609375 187.207031 159.070312 C 186.964844 155.71875 186.714844 152.363281 186.488281 149.011719 C 186.429688 148.117188 186.441406 147.214844 186.40625 146.316406 C 186.398438 146.136719 186.398438 145.910156 186.300781 145.777344 C 185.683594 144.96875 184.875 144.507812 183.835938 144.574219 C 182.753906 144.644531 181.792969 144.964844 181.199219 145.972656 Z M 181.199219 145.972656 " fill-opacity="1" fill-rule="nonzero"/><path fill="#d9d9d9" d="M 178.46875 156.71875 C 177.863281 156.160156 177.238281 155.566406 176.585938 155 C 176.453125 154.886719 176.214844 154.820312 176.039062 154.835938 C 171.835938 155.277344 167.683594 156.023438 163.558594 156.933594 C 163.117188 157.03125 162.933594 157.238281 162.890625 157.644531 C 162.773438 158.761719 162.984375 159.804688 163.527344 160.792969 C 163.75 161.199219 164.03125 161.3125 164.507812 161.21875 C 167.449219 160.644531 170.390625 160.042969 173.347656 159.566406 C 175.476562 159.222656 177.632812 159.050781 179.777344 158.804688 C 179.988281 158.78125 180.195312 158.769531 180.421875 158.75 C 180.488281 158.328125 180.300781 158.242188 179.941406 158.273438 C 175.574219 158.648438 171.257812 159.328125 166.976562 160.242188 C 166.226562 160.402344 165.476562 160.539062 164.734375 160.722656 C 164.289062 160.832031 163.984375 160.714844 163.8125 160.296875 C 163.621094 159.832031 163.449219 159.355469 163.308594 158.988281 C 163.730469 158.988281 164.085938 159.042969 164.421875 158.980469 C 167.425781 158.414062 170.414062 157.785156 173.425781 157.269531 C 175.023438 156.996094 176.652344 156.910156 178.265625 156.738281 C 178.371094 156.730469 178.472656 156.71875 178.46875 156.71875 Z M 178.46875 156.71875 " fill-opacity="1" fill-rule="nonzero"/><path fill="#d9d9d9" d="M 205.332031 155.761719 C 205.332031 156.386719 205.3125 156.996094 205.347656 157.601562 C 205.351562 157.730469 205.527344 157.9375 205.652344 157.964844 C 207.40625 158.339844 209.164062 158.703125 210.925781 159.039062 C 211.144531 159.078125 211.394531 158.929688 211.671875 158.859375 C 211.613281 159.105469 211.570312 159.386719 211.484375 159.652344 C 211.140625 160.726562 210.925781 160.847656 209.84375 160.625 C 208.441406 160.332031 207.042969 160.03125 205.636719 159.757812 C 205.445312 159.722656 205.230469 159.808594 205.027344 159.839844 C 205.03125 159.917969 205.035156 159.996094 205.042969 160.070312 C 205.855469 160.242188 206.667969 160.410156 207.484375 160.578125 C 208.550781 160.800781 209.613281 161.039062 210.683594 161.226562 C 210.875 161.261719 211.191406 161.152344 211.296875 161 C 212.035156 159.953125 212.269531 158.769531 212.070312 157.519531 C 212.039062 157.316406 211.785156 157.035156 211.589844 156.992188 C 209.613281 156.5625 207.628906 156.175781 205.644531 155.78125 C 205.574219 155.765625 205.496094 155.769531 205.332031 155.761719 Z M 205.332031 155.761719 " fill-opacity="1" fill-rule="nonzero"/><path fill="#d9d9d9" d="M 180.472656 155.34375 C 179.996094 155.292969 179.476562 155.347656 179.054688 155.171875 C 178.113281 154.777344 177.597656 153.917969 177.109375 153.066406 C 176.988281 152.851562 176.859375 152.640625 176.679688 152.464844 C 177.191406 153.679688 177.65625 154.9375 178.851562 155.683594 C 179.5 156.089844 180.207031 156.019531 180.882812 155.691406 C 181.335938 155.472656 181.523438 155.089844 181.417969 154.605469 C 180.933594 152.386719 180.4375 150.171875 179.941406 147.957031 C 179.902344 147.789062 179.832031 147.628906 179.773438 147.46875 C 179.230469 146.023438 178.347656 145.6875 176.988281 146.414062 C 176.234375 146.820312 175.65625 147.570312 175.460938 148.308594 C 175.820312 147.992188 176.203125 147.503906 176.703125 147.242188 C 177.191406 146.988281 177.800781 146.957031 178.355469 146.828125 C 178.371094 146.886719 178.386719 146.945312 178.402344 147.003906 C 178.097656 147.136719 177.785156 147.253906 177.492188 147.40625 C 177.210938 147.554688 176.953125 147.742188 176.722656 148.015625 C 177.074219 147.949219 177.425781 147.886719 177.777344 147.824219 C 177.074219 148.382812 177.257812 149.003906 177.597656 149.628906 C 177.90625 150.199219 178.21875 150.769531 178.570312 151.3125 C 178.703125 151.519531 178.9375 151.65625 179.140625 151.84375 C 178.964844 152.074219 178.351562 152.179688 178.648438 152.804688 C 178.996094 152.160156 179.433594 151.898438 179.976562 151.992188 C 180.089844 152.011719 180.203125 152.039062 180.304688 152.089844 C 180.972656 152.433594 181.359375 154.632812 180.839844 155.164062 C 180.742188 155.261719 180.582031 155.296875 180.449219 155.359375 Z M 180.472656 155.34375 " fill-opacity="1" fill-rule="nonzero"/><path fill="#d9d9d9" d="M 199.082031 148.636719 C 199.019531 148.023438 198.957031 147.410156 198.898438 146.800781 C 198.949219 146.777344 199 146.757812 199.050781 146.738281 C 199.363281 147.53125 199.675781 148.328125 200.023438 149.214844 C 200.191406 149.269531 200.496094 149.371094 200.804688 149.472656 C 200.964844 146.738281 198.355469 144.128906 195.867188 144.574219 C 195.425781 144.652344 195.023438 144.917969 194.652344 145.21875 C 195.007812 145.144531 195.359375 145.066406 195.710938 144.992188 C 194.800781 145.773438 194.679688 145.972656 194.757812 146.683594 C 196.015625 146.351562 197.359375 146.667969 199.082031 148.636719 Z M 199.082031 148.636719 " fill-opacity="1" fill-rule="nonzero"/><path fill="#d9d9d9" d="M 208.492188 161.601562 C 208.226562 161.546875 208.042969 161.507812 207.769531 161.449219 C 207.667969 162.234375 207.554688 163 207.480469 163.769531 C 207.21875 166.550781 207.09375 169.335938 207.773438 172.082031 C 207.925781 172.683594 208.160156 173.285156 208.464844 173.828125 C 209.199219 175.128906 210.378906 175.351562 211.523438 174.386719 C 212.070312 173.925781 212.570312 173.367188 212.949219 172.761719 C 213.636719 171.652344 214.21875 170.476562 214.847656 169.328125 C 214.789062 169.296875 214.734375 169.265625 214.675781 169.234375 C 214.460938 169.652344 214.28125 170.097656 214.019531 170.484375 C 213.304688 171.539062 212.652344 172.660156 211.800781 173.59375 C 210.464844 175.046875 209.269531 174.75 208.617188 172.882812 C 207.964844 171.015625 207.910156 169.058594 208 167.113281 C 208.074219 165.496094 208.277344 163.882812 208.421875 162.269531 C 208.441406 162.0625 208.464844 161.855469 208.492188 161.601562 Z M 208.492188 161.601562 " fill-opacity="1" fill-rule="nonzero"/><path fill="#d9d9d9" d="M 167.269531 161.445312 C 166.960938 161.507812 166.757812 161.550781 166.511719 161.597656 C 166.625 162.582031 166.753906 163.539062 166.84375 164.503906 C 167.078125 166.941406 167.179688 169.386719 166.667969 171.804688 C 166.527344 172.464844 166.285156 173.128906 165.957031 173.722656 C 165.488281 174.582031 164.707031 174.78125 163.933594 174.179688 C 163.222656 173.625 162.589844 172.9375 162.042969 172.214844 C 161.460938 171.445312 161.019531 170.566406 160.519531 169.742188 C 160.511719 169.757812 160.472656 169.792969 160.480469 169.8125 C 161.128906 171.371094 161.890625 172.863281 163.097656 174.078125 C 163.359375 174.34375 163.6875 174.566406 164.019531 174.742188 C 164.78125 175.144531 165.566406 175.058594 166.089844 174.378906 C 166.53125 173.800781 166.902344 173.121094 167.113281 172.429688 C 167.8125 170.167969 167.789062 167.832031 167.65625 165.5 C 167.578125 164.171875 167.40625 162.847656 167.269531 161.445312 Z M 167.269531 161.445312 " fill-opacity="1" fill-rule="nonzero"/><path fill="#d9d9d9" d="M 218.40625 152.46875 C 218.5 150.523438 218.492188 148.675781 217.980469 146.871094 C 217.839844 146.382812 217.632812 145.898438 217.367188 145.464844 C 216.742188 144.441406 215.667969 144.160156 214.722656 144.886719 C 213.960938 145.46875 213.273438 146.191406 212.710938 146.96875 C 211.28125 148.941406 209.578125 153.097656 209.054688 155.621094 C 209.265625 155.667969 209.476562 155.714844 209.722656 155.769531 C 210.066406 154.714844 210.386719 153.679688 210.734375 152.660156 C 211.398438 150.722656 212.175781 148.832031 213.335938 147.136719 C 213.761719 146.511719 214.273438 145.921875 214.851562 145.4375 C 215.730469 144.707031 216.632812 144.867188 217.117188 145.90625 C 217.558594 146.859375 217.867188 147.902344 218.0625 148.941406 C 218.277344 150.058594 218.292969 151.214844 218.40625 152.46875 Z M 218.40625 152.46875 " fill-opacity="1" fill-rule="nonzero"/><path fill="#d9d9d9" d="M 156.535156 152.453125 C 156.738281 150.886719 156.890625 149.3125 157.167969 147.757812 C 157.289062 147.078125 157.585938 146.402344 157.933594 145.800781 C 158.449219 144.902344 159.28125 144.699219 160.050781 145.386719 C 160.816406 146.074219 161.511719 146.898438 162.054688 147.777344 C 163.464844 150.046875 164.292969 152.574219 165.054688 155.121094 C 165.113281 155.320312 165.175781 155.519531 165.242188 155.738281 C 165.390625 155.722656 165.523438 155.71875 165.648438 155.695312 C 165.738281 155.679688 165.824219 155.640625 166.003906 155.582031 C 165.597656 154.371094 165.238281 153.167969 164.792969 152 C 163.933594 149.746094 162.972656 147.535156 161.3125 145.726562 C 161.003906 145.394531 160.644531 145.085938 160.261719 144.851562 C 159.207031 144.214844 158.152344 144.449219 157.589844 145.546875 C 157.203125 146.296875 156.90625 147.140625 156.796875 147.972656 C 156.601562 149.457031 156.578125 150.960938 156.484375 152.457031 C 156.5 152.457031 156.515625 152.457031 156.535156 152.453125 Z M 156.535156 152.453125 " fill-opacity="1" fill-rule="nonzero"/><path fill="#d9d9d9" d="M 163.035156 155 C 162.878906 154.535156 162.636719 154.121094 162.09375 154.097656 C 161.539062 154.078125 161.21875 154.488281 161.128906 154.933594 C 160.933594 155.914062 160.726562 156.917969 160.746094 157.910156 C 160.777344 159.699219 161.214844 161.429688 162.050781 163.023438 C 162.347656 163.589844 162.730469 164.140625 163.179688 164.589844 C 163.933594 165.339844 164.753906 165.035156 164.964844 163.988281 C 165.011719 163.734375 165.027344 163.472656 164.972656 163.195312 C 164.835938 163.5 164.71875 163.816406 164.550781 164.105469 C 164.332031 164.488281 164.019531 164.554688 163.730469 164.191406 C 163.488281 163.878906 163.257812 163.539062 163.097656 163.175781 C 162.09375 160.871094 161.585938 158.460938 161.613281 155.945312 C 161.617188 155.699219 161.644531 155.449219 161.699219 155.207031 C 161.867188 154.445312 162.179688 154.339844 162.8125 154.824219 C 162.886719 154.878906 162.960938 154.941406 163.035156 155 Z M 163.035156 155 " fill-opacity="1" fill-rule="nonzero"/><path fill="#d9d9d9" d="M 210.042969 163.199219 C 210.011719 163.886719 209.945312 164.660156 210.710938 164.929688 C 211.453125 165.1875 211.921875 164.589844 212.304688 164.070312 C 213.457031 162.503906 213.992188 160.691406 214.167969 158.796875 C 214.269531 157.707031 214.128906 156.597656 214.074219 155.5 C 214.066406 155.316406 213.976562 155.132812 213.898438 154.960938 C 213.703125 154.542969 213.492188 154.101562 212.941406 154.101562 C 212.386719 154.097656 212.121094 154.503906 211.886719 154.9375 C 211.941406 154.957031 211.976562 154.980469 211.996094 154.972656 C 212.316406 154.839844 212.632812 154.699219 212.949219 154.5625 C 213.089844 154.925781 213.328125 155.277344 213.359375 155.644531 C 213.511719 157.496094 213.152344 159.296875 212.664062 161.066406 C 212.460938 161.796875 212.15625 162.5 211.882812 163.210938 C 211.800781 163.421875 211.703125 163.644531 211.554688 163.808594 C 211.347656 164.039062 211.085938 164.222656 210.847656 164.421875 C 210.648438 164.1875 210.429688 163.964844 210.253906 163.710938 C 210.148438 163.5625 210.109375 163.371094 210.042969 163.199219 Z M 210.042969 163.199219 " fill-opacity="1" fill-rule="nonzero"/><path fill="#d9d9d9" d="M 196.425781 146.90625 C 196.085938 147.710938 195.78125 148.324219 195.585938 148.96875 C 195.523438 149.179688 195.671875 149.582031 195.855469 149.714844 C 196.539062 150.222656 197.25 150.707031 198.003906 151.09375 C 198.554688 151.375 199.25 150.746094 199.148438 150.03125 C 199.085938 149.589844 198.867188 149.097656 198.5625 148.777344 C 197.949219 148.136719 197.230469 147.597656 196.425781 146.90625 Z M 196.425781 146.90625 " fill-opacity="1" fill-rule="nonzero"/><path fill="#d9d9d9" d="M 193.34375 154.6875 C 193.660156 154.574219 193.832031 154.511719 194.050781 154.429688 C 194.050781 155.394531 194.050781 156.3125 194.050781 157.289062 C 193.890625 157.253906 193.738281 157.21875 193.4375 157.152344 C 193.628906 157.351562 193.746094 157.449219 193.835938 157.566406 C 193.929688 157.691406 193.996094 157.832031 194.074219 157.96875 C 193.945312 158.039062 193.820312 158.109375 193.671875 158.191406 C 194.132812 158.539062 194.625 158.472656 195.117188 158.269531 C 196.285156 157.789062 196.757812 156.605469 196.832031 155.566406 C 196.84375 155.449219 196.679688 155.296875 196.5625 155.203125 C 196.355469 155.046875 196.121094 154.921875 195.941406 154.8125 C 195.867188 155.570312 195.816406 156.320312 195.703125 157.058594 C 195.675781 157.25 195.453125 157.414062 195.253906 157.535156 C 195.828125 156.632812 195.582031 155.699219 195.398438 154.808594 C 195.242188 154.066406 194.136719 153.960938 193.34375 154.6875 Z M 193.34375 154.6875 " fill-opacity="1" fill-rule="nonzero"/><g clip-path="url(#55e77d6451)"><path fill="#d9d9d9" d="M 231.300781 160.746094 C 231.160156 161.542969 231.023438 162.308594 230.875 163.152344 C 231.132812 163.152344 231.371094 163.152344 231.671875 163.152344 C 231.359375 164.1875 231.410156 165.40625 230.21875 166.039062 C 230.523438 166.332031 230.714844 166.359375 230.949219 166.050781 C 231.132812 165.8125 231.289062 165.542969 231.410156 165.265625 C 231.90625 164.113281 232.152344 162.90625 232.074219 161.648438 C 232.03125 160.9375 231.945312 160.851562 231.300781 160.746094 Z M 231.300781 160.746094 " fill-opacity="1" fill-rule="nonzero"/></g><g clip-path="url(#1123e646c3)"><path fill="#d9d9d9" d="M 144.878906 166.054688 C 144.046875 165.71875 143.398438 164.382812 143.394531 163.164062 C 143.617188 163.164062 143.839844 163.164062 144.117188 163.164062 C 143.972656 162.324219 143.839844 161.558594 143.707031 160.78125 C 143.265625 160.703125 143.03125 160.875 142.980469 161.292969 C 142.777344 162.957031 143.101562 164.515625 143.96875 165.957031 C 144.191406 166.324219 144.488281 166.34375 144.878906 166.054688 Z M 144.878906 166.054688 " fill-opacity="1" fill-rule="nonzero"/></g><path fill="#d9d9d9" d="M 180.449219 155.359375 C 180.824219 154.953125 180.875 154.503906 180.664062 153.996094 C 180.523438 153.664062 180.421875 153.316406 180.308594 152.972656 C 180.164062 152.539062 179.902344 152.398438 179.464844 152.621094 C 179.699219 153.394531 179.921875 154.167969 180.171875 154.933594 C 180.222656 155.085938 180.371094 155.207031 180.472656 155.34375 C 180.472656 155.34375 180.449219 155.359375 180.449219 155.359375 Z M 180.449219 155.359375 " fill-opacity="1" fill-rule="nonzero"/><path fill="#d9d9d9" d="M 193.890625 151.660156 C 193.628906 152.480469 194.105469 153.464844 193.222656 154.019531 C 193.777344 153.894531 194.316406 153.777344 194.867188 153.652344 C 194.566406 153.042969 194.238281 152.371094 193.890625 151.660156 Z M 193.890625 151.660156 " fill-opacity="1" fill-rule="nonzero"/><path fill="#000000" d="M 148.566406 151.863281 C 148.875 151.65625 149.140625 151.390625 149.460938 151.28125 C 150.121094 151.058594 150.738281 151.554688 150.722656 152.25 C 150.609375 158.167969 151.851562 163.851562 153.753906 169.414062 C 153.898438 169.828125 153.796875 170.089844 153.464844 170.285156 C 152.808594 170.667969 152.136719 170.746094 151.457031 170.265625 C 151.441406 170.332031 151.40625 170.394531 151.425781 170.429688 C 152.464844 172.320312 153.476562 174.246094 155.011719 175.789062 C 155.589844 176.371094 156.316406 176.863281 157.0625 177.199219 C 157.9375 177.59375 158.757812 177.234375 159.441406 176.394531 C 158.824219 175.707031 158.191406 175.023438 157.582031 174.324219 C 155.652344 172.101562 154.414062 169.515625 153.660156 166.695312 C 152.453125 162.167969 151.421875 157.609375 151.5 152.878906 C 151.535156 150.589844 151.824219 148.347656 152.628906 146.195312 C 152.742188 145.890625 152.675781 145.75 152.390625 145.625 C 151.5625 145.253906 150.609375 145.523438 150.082031 146.339844 C 149.398438 147.402344 149.128906 148.621094 148.894531 149.839844 C 148.765625 150.515625 148.675781 151.195312 148.566406 151.863281 Z M 148.566406 151.863281 " fill-opacity="1" fill-rule="nonzero"/><path fill="#000000" d="M 147.90625 170.882812 C 148.136719 171.332031 148.28125 171.730469 148.519531 172.054688 C 149.238281 173.039062 149.929688 174.054688 150.757812 174.945312 C 151.765625 176.035156 152.4375 175.953125 153.421875 174.890625 C 148.34375 167.085938 146.863281 158.574219 148.152344 149.476562 C 146.835938 149.074219 145.851562 149.488281 145.347656 150.761719 C 145.089844 151.40625 144.96875 152.105469 144.902344 152.820312 C 145.144531 152.589844 145.351562 152.28125 145.640625 152.15625 C 145.921875 152.035156 146.308594 152.019531 146.609375 152.101562 C 146.96875 152.195312 146.988281 152.554688 146.96875 152.90625 C 146.585938 158.84375 147.648438 164.542969 149.828125 170.054688 C 149.929688 170.3125 149.941406 170.78125 149.785156 170.921875 C 149.539062 171.144531 149.121094 171.242188 148.769531 171.253906 C 148.523438 171.265625 148.269531 171.050781 147.90625 170.882812 Z M 147.90625 170.882812 " fill-opacity="1" fill-rule="nonzero"/><path fill="#000000" d="M 164.558594 176.835938 C 162.660156 176.402344 161.46875 175.097656 160.5 173.617188 C 159.636719 172.296875 158.949219 170.863281 158.195312 169.472656 C 158.078125 169.265625 158.003906 169.035156 157.902344 168.796875 C 157.148438 169.828125 156.613281 169.960938 155.34375 169.367188 C 155.628906 169.925781 155.851562 170.402344 156.109375 170.859375 C 157.175781 172.75 158.421875 174.503906 160.066406 175.945312 C 160.863281 176.648438 161.738281 177.210938 162.808594 177.417969 C 163.492188 177.554688 164.035156 177.332031 164.558594 176.835938 Z M 164.558594 176.835938 " fill-opacity="1" fill-rule="nonzero"/><path fill="#000000" d="M 152.304688 151.238281 C 153.117188 150.285156 153.523438 150.242188 154.554688 150.898438 C 154.691406 149.859375 154.800781 148.824219 154.976562 147.804688 C 155.210938 146.441406 155.582031 145.121094 156.394531 143.96875 C 157.003906 143.105469 157.464844 142.816406 158.480469 142.617188 C 157.78125 141.902344 156.230469 141.820312 155.214844 142.511719 C 154.816406 142.78125 154.453125 143.160156 154.191406 143.566406 C 153.167969 145.164062 152.800781 146.980469 152.5625 148.824219 C 152.464844 149.578125 152.398438 150.335938 152.304688 151.238281 Z M 152.304688 151.238281 " fill-opacity="1" fill-rule="nonzero"/><path fill="#000000" d="M 222.355469 145.789062 C 222.664062 147.132812 223.035156 148.417969 223.246094 149.730469 C 223.695312 152.5625 223.570312 155.40625 223.144531 158.230469 C 222.617188 161.707031 221.910156 165.144531 220.765625 168.476562 C 219.863281 171.101562 218.402344 173.382812 216.476562 175.375 C 216.160156 175.703125 215.863281 176.046875 215.5625 176.382812 C 216.226562 177.269531 217.128906 177.601562 218.082031 177.144531 C 218.773438 176.816406 219.445312 176.351562 219.980469 175.804688 C 221.535156 174.222656 222.546875 172.265625 223.578125 170.453125 C 223.050781 170.46875 222.5 170.5625 221.976562 170.476562 C 221.242188 170.355469 221.082031 169.929688 221.316406 169.234375 C 223.140625 163.789062 224.359375 158.238281 224.273438 152.460938 C 224.265625 151.898438 224.371094 151.464844 224.9375 151.289062 C 225.46875 151.125 225.910156 151.308594 226.234375 151.765625 C 226.261719 151.808594 226.304688 151.839844 226.417969 151.964844 C 226.175781 150.027344 225.933594 148.199219 225.046875 146.539062 C 224.457031 145.441406 223.417969 145.183594 222.355469 145.789062 Z M 222.355469 145.789062 " fill-opacity="1" fill-rule="nonzero"/><path fill="#000000" d="M 221.5625 174.917969 C 221.691406 175.03125 221.898438 175.230469 222.128906 175.394531 C 222.753906 175.828125 223.214844 175.828125 223.800781 175.347656 C 225.246094 174.164062 226.253906 172.652344 227.082031 170.890625 C 226.761719 171.039062 226.542969 171.171875 226.300781 171.246094 C 225.890625 171.378906 225.511719 171.304688 225.207031 170.964844 C 224.921875 170.65625 225.027344 170.355469 225.164062 170.015625 C 227.363281 164.492188 228.429688 158.78125 228.023438 152.824219 C 227.976562 152.132812 228.632812 151.738281 229.28125 152.101562 C 229.585938 152.273438 229.820312 152.566406 230.078125 152.792969 C 230.167969 151.949219 229.722656 150.535156 229.144531 149.933594 C 228.480469 149.242188 227.675781 149.246094 226.835938 149.445312 C 228.144531 158.566406 226.652344 167.054688 221.5625 174.917969 Z M 221.5625 174.917969 " fill-opacity="1" fill-rule="nonzero"/><path fill="#000000" d="M 219.578125 169.394531 C 218.382812 169.972656 217.800781 169.832031 217.132812 168.816406 C 215.570312 172.019531 214.242188 175.410156 210.515625 176.910156 C 210.949219 177.332031 211.484375 177.546875 212.152344 177.425781 C 213.390625 177.199219 214.363281 176.503906 215.246094 175.664062 C 217.066406 173.933594 218.445312 171.882812 219.519531 169.621094 C 219.546875 169.558594 219.554688 169.484375 219.578125 169.394531 Z M 219.578125 169.394531 " fill-opacity="1" fill-rule="nonzero"/><path fill="#000000" d="M 222.667969 151.039062 C 222.410156 148.433594 222.226562 145.746094 220.707031 143.394531 C 219.78125 141.964844 217.789062 141.605469 216.398438 142.640625 C 217.621094 142.675781 218.320312 143.425781 218.859375 144.363281 C 219.773438 145.953125 220.074219 147.722656 220.277344 149.511719 C 220.332031 149.96875 220.367188 150.421875 220.402344 150.832031 C 220.808594 150.703125 221.222656 150.453125 221.617188 150.484375 C 221.980469 150.511719 222.316406 150.839844 222.667969 151.039062 Z M 222.667969 151.039062 " fill-opacity="1" fill-rule="nonzero"/></svg>